C:\Users\r0593348\3dpredictsim\Results\Batchsim_tmt_linear_v2\Pog_s1_tmt_aCst_d02_k250_ig24_pas_GRF.mot
nRows=25
nColumns=19

name C:\Users\r0593348\3dpredictsim\Results\Batchsim_tmt_linear_v2\Pog_s1_tmt_aCst_d02_k250_ig24_pas_GRF.mot
datacolumns 19
datarows 25
range 0.0000000000 0.2652767820
endheader
time 	ground_force_vx	ground_force_vy	ground_force_vz	ground_force_px	ground_force_py	ground_force_pz	1_ground_force_vx	1_ground_force_vy	1_ground_force_vz	1_ground_force_px	1_ground_force_py	1_ground_force_pz	ground_torque_x	ground_torque_y	ground_torque_z	1_ground_torque_x	1_ground_torque_y	1_ground_torque_z
        0.0000000000	      -66.5582854308	       55.4830847192	       22.2090114779	        0.1691466848	        0.0000000000	        0.0443449994	       99.3478924860	      418.2603540058	        1.7989907998	       -0.3526013770	        0.0000000000	       -0.0424936076	        0.0000000000	        0.0000000000	        0.0000000000	        0.0000000000	        0.0000000000	        0.0000000000	
        0.0110531992	     -121.6472804748	      134.3825854444	       60.7026947347	        0.1761148507	        0.0000000000	        0.0424476241	       59.1086437334	      303.7624417951	       -5.0074538455	       -0.3325196545	        0.0000000000	       -0.0385973351	        0.0000000000	        0.0000000000	        0.0000000000	        0.0000000000	        0.0000000000	        0.0000000000	
        0.0221063985	      -71.7051511287	      295.0911831164	       25.0598229405	        0.1819262834	        0.0000000000	        0.0403748137	       23.8793866479	      201.2435507052	       -9.5812123516	       -0.3010227891	        0.0000000000	       -0.0313231937	        0.0000000000	        0.0000000000	        0.0000000000	        0.0000000000	        0.0000000000	        0.0000000000	
        0.0331595977	      -74.3675202534	      502.3715665281	        0.7424125380	        0.1872726084	        0.0000000000	        0.0408887792	        2.9482982880	      147.8355582679	      -12.6165739349	       -0.2773838131	        0.0000000000	       -0.0236758153	        0.0000000000	        0.0000000000	        0.0000000000	        0.0000000000	        0.0000000000	        0.0000000000	
        0.0442127970	     -113.0537062837	      777.4020924864	      -13.6621521561	        0.1977909630	        0.0000000000	        0.0437412218	       -1.5463963086	      118.1211207977	      -11.1696118131	       -0.2777953547	        0.0000000000	       -0.0239417872	        0.0000000000	        0.0000000000	        0.0000000000	        0.0000000000	        0.0000000000	        0.0000000000	
        0.0552659962	     -145.0436087911	      951.4397963642	      -18.6498214609	        0.2047862341	        0.0000000000	        0.0456211001	       -3.9135338189	       77.6171169681	      -10.2647036433	       -0.2772348489	        0.0000000000	       -0.0240323120	        0.0000000000	        0.0000000000	        0.0000000000	        0.0000000000	        0.0000000000	        0.0000000000	
        0.0663191955	     -148.3472397229	      985.5464663700	      -20.0290135898	        0.2096175273	        0.0000000000	        0.0467783472	       -7.7163979224	       32.2786688226	       -6.4894652387	       -0.2772890979	        0.0000000000	       -0.0241079753	        0.0000000000	        0.0000000000	        0.0000000000	        0.0000000000	        0.0000000000	        0.0000000000	
        0.0773723947	     -136.8139419411	      944.2433077229	      -20.3520800304	        0.2133953876	        0.0000000000	        0.0475357348	        0.0758086379	       -0.0756378457	        0.0046477431	        0.0000000000	        0.0000000000	        0.0000000000	        0.0000000000	        0.0000000000	        0.0000000000	        0.0000000000	        0.0000000000	        0.0000000000	
        0.0884255940	     -119.2077148378	      878.5907538520	      -19.4034138922	        0.2172307478	        0.0000000000	        0.0481320759	        0.0000429020	       -0.0000349607	       -0.0000016601	        0.0000000000	        0.0000000000	        0.0000000000	        0.0000000000	        0.0000000000	        0.0000000000	        0.0000000000	        0.0000000000	        0.0000000000	
        0.0994787932	     -104.3108232591	      821.5469576812	      -18.4501446810	        0.2217517200	        0.0000000000	        0.0488381280	        0.0000463424	       -0.0000333484	       -0.0000024445	        0.0000000000	        0.0000000000	        0.0000000000	        0.0000000000	        0.0000000000	        0.0000000000	        0.0000000000	        0.0000000000	        0.0000000000	
        0.1105319925	      -95.4682773130	      780.5494009674	      -17.9823469014	        0.2273941908	        0.0000000000	        0.0492133480	        0.0006802113	       -0.0004393873	       -0.0000407796	        0.0000000000	        0.0000000000	        0.0000000000	        0.0000000000	        0.0000000000	        0.0000000000	        0.0000000000	        0.0000000000	        0.0000000000	
        0.1215851917	      -85.8324870753	      742.3619388246	      -17.4108820858	        0.2331132808	        0.0000000000	        0.0493280981	        0.0055984553	       -0.0033158618	       -0.0003550207	        0.0000000000	        0.0000000000	        0.0000000000	        0.0000000000	        0.0000000000	        0.0000000000	        0.0000000000	        0.0000000000	        0.0000000000	
        0.1326383910	      -76.5032290486	      705.9542683993	      -17.2551072347	        0.2385954285	        0.0000000000	        0.0493463387	       -0.0432123277	        0.0238469657	        0.0028157198	        0.0000000000	        0.0000000000	        0.0000000000	        0.0000000000	        0.0000000000	        0.0000000000	        0.0000000000	        0.0000000000	        0.0000000000	
        0.1436915902	      -68.2543038539	      675.2677215079	      -16.9336233720	        0.2438774735	        0.0000000000	        0.0492377984	       -0.0297156068	        0.0154356222	        0.0019640022	        0.0000000000	        0.0000000000	        0.0000000000	        0.0000000000	        0.0000000000	        0.0000000000	        0.0000000000	        0.0000000000	        0.0000000000	
        0.1547447895	      -60.0419965644	      651.1889608316	      -16.9128859641	        0.2490014097	        0.0000000000	        0.0490967487	       -0.0211023566	        0.0103988953	        0.0014042931	        0.0000000000	        0.0000000000	        0.0000000000	        0.0000000000	        0.0000000000	        0.0000000000	        0.0000000000	        0.0000000000	        0.0000000000	
        0.1657979887	      -53.8613809804	      632.9599496169	      -17.3401513068	        0.2539217687	        0.0000000000	        0.0489348138	       -0.0190713651	        0.0089744045	        0.0012732212	        0.0000000000	        0.0000000000	        0.0000000000	        0.0000000000	        0.0000000000	        0.0000000000	        0.0000000000	        0.0000000000	        0.0000000000	
        0.1768511880	      -48.9235856838	      619.7148272023	      -17.9328756514	        0.2585330334	        0.0000000000	        0.0487494894	       -0.0225018042	        0.0101682268	        0.0015092391	        0.0000000000	        0.0000000000	        0.0000000000	        0.0000000000	        0.0000000000	        0.0000000000	        0.0000000000	        0.0000000000	        0.0000000000	
        0.1879043872	      -44.6103387846	      609.9221139601	      -18.5260344805	        0.2628454683	        0.0000000000	        0.0485529686	       -0.0333290257	        0.0145415712	        0.0022469100	        0.0000000000	        0.0000000000	        0.0000000000	        0.0000000000	        0.0000000000	        0.0000000000	        0.0000000000	        0.0000000000	        0.0000000000	
        0.1989575865	      -40.5238549331	      602.1375223637	      -19.4078018867	        0.2668491842	        0.0000000000	        0.0483365634	       -0.0580407730	        0.0245707456	        0.0039479844	        0.0000000000	        0.0000000000	        0.0000000000	        0.0000000000	        0.0000000000	        0.0000000000	        0.0000000000	        0.0000000000	        0.0000000000	
        0.2100107857	      -36.3650241014	      595.3672617119	      -20.2609652403	        0.2705846141	        0.0000000000	        0.0481110666	       -0.1104096562	        0.0455536092	        0.0076050331	        0.0000000000	        0.0000000000	        0.0000000000	        0.0000000000	        0.0000000000	        0.0000000000	        0.0000000000	        0.0000000000	        0.0000000000	
        0.2210639850	      -32.2733691021	      589.1597164643	      -20.8231998234	        0.2740831863	        0.0000000000	        0.0478883218	       -0.2134942056	        0.0862072152	        0.0148947677	        0.0000000000	        0.0000000000	        0.0000000000	        0.0000000000	        0.0000000000	        0.0000000000	        0.0000000000	        0.0000000000	        0.0000000000	
        0.2321171842	      -28.2833523947	      583.0852872624	      -20.7841313672	        0.2773592702	        0.0000000000	        0.0476824772	       -0.3940197742	        0.1563180892	        0.0277341043	        0.0000000000	        0.0000000000	        0.0000000000	        0.0000000000	        0.0000000000	        0.0000000000	        0.0000000000	        0.0000000000	        0.0000000000	
        0.2431703835	      -24.3344059560	      576.6749733103	      -20.5162443445	        0.2804310908	        0.0000000000	        0.0474836055	       -0.6670342816	        0.2608406952	        0.0470612017	        0.0000000000	        0.0000000000	        0.0000000000	        0.0000000000	        0.0000000000	        0.0000000000	        0.0000000000	        0.0000000000	        0.0000000000	
        0.2542235827	      -20.2545967482	      569.6480417792	      -19.9376347092	        0.2833150881	        0.0000000000	        0.0472930856	       -1.0209205327	        0.3943562118	        0.0717436413	        0.0000000000	        0.0000000000	        0.0000000000	        0.0000000000	        0.0000000000	        0.0000000000	        0.0000000000	        0.0000000000	        0.0000000000	
        0.2652767820	      -16.0196959015	      562.1099531095	      -19.1456750606	        0.2860155953	        0.0000000000	        0.0471087170	       -1.4258499293	        0.5447697741	        0.0990191189	        0.0000000000	        0.0000000000	        0.0000000000	        0.0000000000	        0.0000000000	        0.0000000000	        0.0000000000	        0.0000000000	        0.0000000000	
